<svg version="1.1" id="Layer_1" xmlns="http://www.w3.org/2000/svg" xmlns:xlink="http://www.w3.org/1999/xlink" x="0px" y="0px"
	 width="100%" viewBox="0 0 479 166" enable-background="new 0 0 479 166" xml:space="preserve">
<path fill="#FEFEFE" opacity="1.000000" stroke="none" 
	d="
M309.000000,167.000000 
	C206.000031,167.000000 103.500076,167.000000 1.000082,167.000000 
	C1.000055,111.666725 1.000055,56.333447 1.000028,1.000127 
	C160.666550,1.000085 320.333099,1.000085 479.999756,1.000042 
	C479.999817,56.333202 479.999817,111.666405 479.999908,166.999802 
	C423.166656,167.000000 366.333344,167.000000 309.000000,167.000000 
M288.499542,89.005974 
	C294.775024,89.005974 301.050507,89.005974 307.844788,89.005974 
	C307.844788,106.913513 307.844788,124.292274 307.844788,141.630035 
	C312.759125,141.630035 317.136108,141.630035 321.551208,141.630035 
	C321.551208,103.678703 321.551208,66.103745 321.551208,28.261765 
	C316.934540,28.261765 312.544586,28.261765 307.644409,28.261765 
	C307.644409,44.235641 307.644409,59.961636 307.644409,75.622299 
	C287.753143,75.622299 268.374054,75.622299 248.671188,75.622299 
	C248.671188,59.649319 248.671188,44.046093 248.671188,28.267307 
	C243.941879,28.267307 239.543655,28.267307 235.079056,28.267307 
	C235.079056,66.242096 235.079056,103.942909 235.079056,141.670456 
	C239.765030,141.670456 244.153046,141.670456 249.056549,141.670456 
	C249.056549,123.966469 249.056549,106.592079 249.056549,89.005974 
	C262.219086,89.005974 274.859436,89.005974 288.499542,89.005974 
M440.450073,109.003380 
	C443.370605,109.003380 446.291107,109.003380 449.272461,109.003380 
	C449.272461,105.346786 449.272461,102.408348 449.272461,99.038208 
	C442.431244,99.038208 435.832855,99.038208 428.605255,99.038208 
	C430.224365,90.440613 431.743042,82.376328 433.341797,73.886826 
	C440.573578,73.886826 447.489380,73.886826 454.423462,73.886826 
	C454.423462,70.327644 454.423462,67.279274 454.423462,63.915169 
	C447.914490,63.915169 441.781219,63.915169 435.369049,63.915169 
	C437.367279,52.857216 439.300415,42.159389 441.281586,31.195759 
	C437.528137,31.195759 434.414429,31.195759 431.156555,31.195759 
	C429.063934,42.208988 427.002319,53.058983 424.989075,63.654442 
	C417.253052,63.654442 410.191162,63.654442 402.815460,63.654442 
	C404.811859,52.672817 406.738220,42.076355 408.704651,31.259647 
	C404.992096,31.259647 401.570709,31.259647 398.080200,31.259647 
	C396.010406,42.244888 393.985931,52.989544 391.898346,64.069252 
	C384.455444,64.069252 377.348877,64.069252 370.075500,64.069252 
	C370.075500,67.534622 370.075500,70.578865 370.075500,74.030952 
	C376.822723,74.030952 383.266937,74.030952 390.111481,74.030952 
	C388.418671,82.605888 386.820282,90.702667 385.132812,99.250801 
	C377.875488,99.250801 370.972290,99.250801 364.216431,99.250801 
	C364.216431,102.735542 364.216431,105.675148 364.216431,109.031410 
	C370.582123,109.031410 376.683838,109.031410 383.168182,109.031410 
	C381.247406,119.881287 379.411438,130.252121 377.537811,140.835632 
	C381.313049,140.835632 384.434937,140.835632 387.818909,140.835632 
	C389.851379,130.203690 391.863159,119.679993 393.849213,109.290863 
	C401.477570,109.290863 408.560669,109.290863 415.872742,109.290863 
	C413.832336,119.938034 411.852814,130.267685 409.828705,140.829788 
	C413.615387,140.829788 416.740051,140.829788 420.259338,140.829788 
	C422.384613,130.225769 424.493225,119.704811 426.638031,109.003380 
	C431.169647,109.003380 435.320984,109.003380 440.450073,109.003380 
M97.340088,56.121487 
	C94.270187,48.228695 90.857826,40.446018 88.270081,32.398193 
	C86.908836,28.164755 84.465248,27.713926 80.882454,27.961782 
	C77.257660,28.212545 73.871254,27.090851 71.868706,32.345013 
	C58.503357,67.412315 44.675976,102.303490 31.016745,137.258942 
	C30.457829,138.689270 30.079649,140.190201 29.508224,142.004456 
	C32.957603,142.004456 35.812790,141.728699 38.591801,142.071121 
	C42.456402,142.547302 44.031158,140.858566 45.273937,137.354584 
	C48.491879,128.281677 52.099689,119.342628 55.760204,110.435776 
	C56.325184,109.061043 57.975655,107.172234 59.149567,107.153946 
	C73.613205,106.928581 88.081573,107.007027 102.603134,107.007027 
	C106.780159,117.629044 110.788269,127.999672 114.986702,138.292664 
	C115.570404,139.723709 116.989151,141.693573 118.198647,141.828857 
	C122.198563,142.276260 126.279686,141.997620 130.383087,141.997620 
	C130.273438,141.018158 130.305252,140.668594 130.191422,140.375610 
	C119.367012,112.516273 108.531509,84.661255 97.340088,56.121487 
M140.853714,55.582348 
	C140.361313,68.224625 146.091949,77.314667 156.974274,83.261719 
	C161.045715,85.486710 165.380661,87.238213 169.631912,89.123413 
	C175.250488,91.614960 181.070740,93.707954 186.505692,96.544395 
	C195.030640,100.993454 198.014999,106.943230 196.866180,115.669388 
	C195.954025,122.598045 190.522125,128.478607 181.973038,129.769028 
	C174.987564,130.823410 167.685638,130.991730 160.662338,130.247513 
	C153.528351,129.491531 146.563766,127.136993 139.264633,125.421318 
	C139.264633,127.854858 139.543610,130.219849 139.204834,132.492767 
	C138.558640,136.828308 140.329590,139.128189 144.538635,139.590622 
	C154.588226,140.694748 164.651413,142.538452 174.700073,142.481827 
	C181.299271,142.444656 188.245422,140.466675 194.391678,137.846191 
	C204.652420,133.471451 210.317917,125.112396 211.072281,113.735306 
	C211.866440,101.758141 207.219650,92.634140 196.678070,86.807640 
	C192.181244,84.322166 187.452301,82.237083 182.749512,80.148743 
	C176.982346,77.587776 170.805206,75.763603 165.431381,72.568062 
	C161.783005,70.398552 158.039505,66.933777 156.376892,63.152100 
	C151.326340,51.664330 159.073944,41.034462 172.352142,40.066471 
	C183.349136,39.264786 193.725388,41.728184 204.007858,46.168015 
	C205.501938,41.896027 206.856064,38.024216 208.379822,33.667397 
	C192.248535,27.112478 176.124298,24.336023 159.623642,30.168976 
	C148.392197,34.139271 141.357422,42.087242 140.853714,55.582348 
z"/>
<path fill="#A30565" opacity="1.000000" stroke="none" 
	d="
M287.999664,89.005974 
	C274.859436,89.005974 262.219086,89.005974 249.056549,89.005974 
	C249.056549,106.592079 249.056549,123.966469 249.056549,141.670456 
	C244.153046,141.670456 239.765030,141.670456 235.079056,141.670456 
	C235.079056,103.942909 235.079056,66.242096 235.079056,28.267307 
	C239.543655,28.267307 243.941879,28.267307 248.671188,28.267307 
	C248.671188,44.046093 248.671188,59.649319 248.671188,75.622299 
	C268.374054,75.622299 287.753143,75.622299 307.644409,75.622299 
	C307.644409,59.961636 307.644409,44.235641 307.644409,28.261765 
	C312.544586,28.261765 316.934540,28.261765 321.551208,28.261765 
	C321.551208,66.103745 321.551208,103.678703 321.551208,141.630035 
	C317.136108,141.630035 312.759125,141.630035 307.844788,141.630035 
	C307.844788,124.292274 307.844788,106.913513 307.844788,89.005974 
	C301.050507,89.005974 294.775024,89.005974 287.999664,89.005974 
z"/>
<path fill="#2080C4" opacity="1.000000" stroke="none" 
	d="
M439.961182,109.003380 
	C435.320984,109.003380 431.169647,109.003380 426.638031,109.003380 
	C424.493225,119.704811 422.384613,130.225769 420.259338,140.829788 
	C416.740051,140.829788 413.615387,140.829788 409.828705,140.829788 
	C411.852814,130.267685 413.832336,119.938034 415.872742,109.290863 
	C408.560669,109.290863 401.477570,109.290863 393.849213,109.290863 
	C391.863159,119.679993 389.851379,130.203690 387.818909,140.835632 
	C384.434937,140.835632 381.313049,140.835632 377.537811,140.835632 
	C379.411438,130.252121 381.247406,119.881287 383.168182,109.031410 
	C376.683838,109.031410 370.582123,109.031410 364.216431,109.031410 
	C364.216431,105.675148 364.216431,102.735542 364.216431,99.250801 
	C370.972290,99.250801 377.875488,99.250801 385.132812,99.250801 
	C386.820282,90.702667 388.418671,82.605888 390.111481,74.030952 
	C383.266937,74.030952 376.822723,74.030952 370.075500,74.030952 
	C370.075500,70.578865 370.075500,67.534622 370.075500,64.069252 
	C377.348877,64.069252 384.455444,64.069252 391.898346,64.069252 
	C393.985931,52.989544 396.010406,42.244888 398.080200,31.259647 
	C401.570709,31.259647 404.992096,31.259647 408.704651,31.259647 
	C406.738220,42.076355 404.811859,52.672817 402.815460,63.654442 
	C410.191162,63.654442 417.253052,63.654442 424.989075,63.654442 
	C427.002319,53.058983 429.063934,42.208988 431.156555,31.195759 
	C434.414429,31.195759 437.528137,31.195759 441.281586,31.195759 
	C439.300415,42.159389 437.367279,52.857216 435.369049,63.915169 
	C441.781219,63.915169 447.914490,63.915169 454.423462,63.915169 
	C454.423462,67.279274 454.423462,70.327644 454.423462,73.886826 
	C447.489380,73.886826 440.573578,73.886826 433.341797,73.886826 
	C431.743042,82.376328 430.224365,90.440613 428.605255,99.038208 
	C435.832855,99.038208 442.431244,99.038208 449.272461,99.038208 
	C449.272461,102.408348 449.272461,105.346786 449.272461,109.003380 
	C446.291107,109.003380 443.370605,109.003380 439.961182,109.003380 
M397.929779,98.991013 
	C404.552856,98.991013 411.175964,98.991013 418.000641,98.991013 
	C419.584656,90.488174 421.086121,82.428398 422.606934,74.264893 
	C414.924896,74.264893 407.821198,74.264893 400.543854,74.264893 
	C399.071777,81.800858 397.606415,89.108925 396.268829,96.440292 
	C396.130676,97.197556 396.754059,98.093758 397.929779,98.991013 
z"/>
<path fill="#A30465" opacity="1.000000" stroke="none" 
	d="
M97.518402,56.463722 
	C108.531509,84.661255 119.367012,112.516273 130.191422,140.375610 
	C130.305252,140.668594 130.273438,141.018158 130.383087,141.997620 
	C126.279686,141.997620 122.198563,142.276260 118.198647,141.828857 
	C116.989151,141.693573 115.570404,139.723709 114.986702,138.292664 
	C110.788269,127.999672 106.780159,117.629044 102.603134,107.007027 
	C88.081573,107.007027 73.613205,106.928581 59.149567,107.153946 
	C57.975655,107.172234 56.325184,109.061043 55.760204,110.435776 
	C52.099689,119.342628 48.491879,128.281677 45.273937,137.354584 
	C44.031158,140.858566 42.456402,142.547302 38.591801,142.071121 
	C35.812790,141.728699 32.957603,142.004456 29.508224,142.004456 
	C30.079649,140.190201 30.457829,138.689270 31.016745,137.258942 
	C44.675976,102.303490 58.503357,67.412315 71.868706,32.345013 
	C73.871254,27.090851 77.257660,28.212545 80.882454,27.961782 
	C84.465248,27.713926 86.908836,28.164755 88.270081,32.398193 
	C90.857826,40.446018 94.270187,48.228695 97.518402,56.463722 
M87.710419,65.802528 
	C85.194901,58.902977 82.679382,52.003426 80.037010,44.755939 
	C73.893028,61.557487 68.036339,77.573402 62.096081,93.817856 
	C74.153015,93.817856 85.908356,93.817856 97.651375,93.817856 
	C97.704086,93.310097 97.856400,92.941589 97.754158,92.668312 
	C94.494560,83.956215 91.210312,75.253342 87.710419,65.802528 
z"/>
<path fill="#A30666" opacity="1.000000" stroke="none" 
	d="
M140.855194,55.120411 
	C141.357422,42.087242 148.392197,34.139271 159.623642,30.168976 
	C176.124298,24.336023 192.248535,27.112478 208.379822,33.667397 
	C206.856064,38.024216 205.501938,41.896027 204.007858,46.168015 
	C193.725388,41.728184 183.349136,39.264786 172.352142,40.066471 
	C159.073944,41.034462 151.326340,51.664330 156.376892,63.152100 
	C158.039505,66.933777 161.783005,70.398552 165.431381,72.568062 
	C170.805206,75.763603 176.982346,77.587776 182.749512,80.148743 
	C187.452301,82.237083 192.181244,84.322166 196.678070,86.807640 
	C207.219650,92.634140 211.866440,101.758141 211.072281,113.735306 
	C210.317917,125.112396 204.652420,133.471451 194.391678,137.846191 
	C188.245422,140.466675 181.299271,142.444656 174.700073,142.481827 
	C164.651413,142.538452 154.588226,140.694748 144.538635,139.590622 
	C140.329590,139.128189 138.558640,136.828308 139.204834,132.492767 
	C139.543610,130.219849 139.264633,127.854858 139.264633,125.421318 
	C146.563766,127.136993 153.528351,129.491531 160.662338,130.247513 
	C167.685638,130.991730 174.987564,130.823410 181.973038,129.769028 
	C190.522125,128.478607 195.954025,122.598045 196.866180,115.669388 
	C198.014999,106.943230 195.030640,100.993454 186.505692,96.544395 
	C181.070740,93.707954 175.250488,91.614960 169.631912,89.123413 
	C165.380661,87.238213 161.045715,85.486710 156.974274,83.261719 
	C146.091949,77.314667 140.361313,68.224625 140.855194,55.120411 
z"/>
<path fill="#FCFDFE" opacity="1.000000" stroke="none" 
	d="
M397.476929,98.958252 
	C396.754059,98.093758 396.130676,97.197556 396.268829,96.440292 
	C397.606415,89.108925 399.071777,81.800858 400.543854,74.264893 
	C407.821198,74.264893 414.924896,74.264893 422.606934,74.264893 
	C421.086121,82.428398 419.584656,90.488174 418.000641,98.991013 
	C411.175964,98.991013 404.552856,98.991013 397.476929,98.958252 
z"/>
<path fill="#FDFBFC" opacity="1.000000" stroke="none" 
	d="
M87.820099,66.175797 
	C91.210312,75.253342 94.494560,83.956215 97.754158,92.668312 
	C97.856400,92.941589 97.704086,93.310097 97.651375,93.817856 
	C85.908356,93.817856 74.153015,93.817856 62.096081,93.817856 
	C68.036339,77.573402 73.893028,61.557487 80.037010,44.755939 
	C82.679382,52.003426 85.194901,58.902977 87.820099,66.175797 
z"/>
</svg>